# xmcd
#
# Track frame offsets:
#	150
#	16693
#	31188
#	48714
#	67095
#	84341
#	96427
#	113181
#	128161
#	166441
#	185230
#	203169
#	217122
#	265973
#	298722
#	319501
#	330000
#
# Disc length: 4792 seconds
#
# Revision: 1
# Processed by: cddbd v1.5.1PL2 Copyright (c) Steve Scherf et al.
# Submitted via: EasyCDDAExtractor 9.0.0.1
#
DISCID=f812b611
DTITLE=Kiss - The Summit Houston 02-09-77
DYEAR=1977
DGENRE=Hard Rock
TTITLE0=I Stole Your Love
TTITLE1=Take Me
TTITLE2=Ladies Room
TTITLE3=Firehouse
TTITLE4=Love Gun
TTITLE5=Hooligan
TTITLE6=Makin' Love
TTITLE7=Christine Sixteen
TTITLE8=Shock Me - Ace Solo
TTITLE9=I Want You
TTITLE10=Calling Dr Love
TTITLE11=Shout It Out Loud
TTITLE12=God Of Thunder
TTITLE13=Rock And Roll All Nite
TTITLE14=Detroit Rock City
TTITLE15=Beth
TTITLE16=Black Diamond
EXTD=
EXTT0=
EXTT1=
EXTT2=
EXTT3=
EXTT4=
EXTT5=
EXTT6=
EXTT7=
EXTT8=
EXTT9=
EXTT10=
EXTT11=
EXTT12=
EXTT13=
EXTT14=
EXTT15=
EXTT16=
PLAYORDER=
